<?xml version="1.0" encoding="UTF-8"?>
<!DOCTYPE svg PUBLIC "-//W3C//DTD SVG 1.1//EN" "http://www.w3.org/Graphics/SVG/1.1/DTD/svg11.dtd">
<!-- Creator: CorelDRAW 2018 (64-Bit Evaluation Version) -->
<svg xmlns="http://www.w3.org/2000/svg" xml:space="preserve" width="6.54426in" height="3.37324in" version="1.1" style="shape-rendering:geometricPrecision; text-rendering:geometricPrecision; image-rendering:optimizeQuality; fill-rule:evenodd; clip-rule:evenodd"
viewBox="0 0 6635.92 3420.48"
 xmlns:xlink="http://www.w3.org/1999/xlink">
 <defs>
  <style type="text/css">
   <![CDATA[
    .fil0 {fill:black;fill-rule:nonzero}
    .fil1 {fill:#FFDD1F;fill-rule:nonzero}
    .fil2 {fill:#FFDD1F;fill-rule:nonzero}
   ]]>
  </style>
 </defs>
 <g id="Layer_x0020_1">
  <metadata id="CorelCorpID_0Corel-Layer"/>
  <path class="fil0" d="M967.71 3127.2c-3.43,15.9 -5.76,28.38 -6.72,37.57 -1.1,9.33 -1.64,17.69 -1.64,25.09 0,12.06 3.01,20.56 9.05,25.64 6.03,4.93 16.04,7.95 30.3,8.91l-4.39 19.75 -160.69 0 4.39 -19.75c10.15,-1.51 17.82,-4.11 22.9,-7.81 5.07,-3.56 9.32,-8.64 12.89,-15.08 3.43,-6.31 6.72,-14.26 9.6,-23.45 3.01,-9.19 7.4,-27.15 13.3,-53.61l32.91 -149.04 -215.67 0 -33.32 151.78c-2.2,10.01 -3.84,18.1 -5.07,24.4 -1.23,6.31 -2.06,12.34 -2.6,18.38 -0.55,6.03 -0.83,12.75 -0.83,19.88 0,11.51 2.74,19.88 8.09,24.95 5.35,5.07 15.76,8.36 31.26,9.6l-4.39 19.75 -160.69 0 4.39 -19.75c10.28,-1.51 17.82,-4.11 22.9,-7.81 5.07,-3.56 9.46,-8.64 12.89,-15.08 3.43,-6.31 6.72,-14.26 9.6,-23.45 3.01,-9.19 7.4,-27.15 13.3,-53.61l68.28 -309.32c2.47,-10.97 4.52,-22.62 6.3,-35.1 1.65,-12.48 2.61,-22.35 2.61,-29.61 0,-12.48 -3.29,-21.25 -9.73,-26.19 -6.45,-5.07 -16.32,-7.95 -29.75,-8.64l4.52 -19.74 160.69 0 -4.52 19.74c-10.15,2.06 -17.41,4.53 -21.8,7.13 -4.53,2.74 -8.5,6.72 -12.06,12.07 -3.7,5.35 -7.27,13.71 -10.83,25.09 -3.7,11.38 -8.22,29.89 -13.84,55.67l-27.42 122.99 215.81 0 27.29 -123.4c2.33,-10.97 4.39,-22.62 6.17,-35.1 1.78,-12.48 2.61,-22.35 2.61,-29.61 0,-12.48 -3.15,-21.25 -9.6,-26.19 -6.45,-5.07 -16.32,-7.95 -29.75,-8.64l4.39 -19.74 160.69 0 -4.39 19.74c-9.05,2.06 -15.49,4.12 -19.33,5.9 -3.7,1.92 -7.13,4.53 -10.14,7.68 -3.15,3.29 -6.04,7.82 -8.91,13.85 -2.74,6.03 -5.76,14.95 -9.05,26.6 -3.15,11.52 -6.85,26.88 -11.24,45.93l-68.69 311.65z"/>
  <path id="1" class="fil0" d="M1404.81 2995.44c12.89,9.73 23.31,21.25 31.12,34.55 7.95,13.43 14.26,32.08 19.06,55.94l9.32 46.48c1.78,9.74 3.98,18.65 6.17,27.01 2.33,8.23 4.93,16.18 8.09,23.86 3.02,7.68 6.44,13.71 10.01,18.24 3.56,4.66 7.54,8.36 11.66,11.24 4.11,3.02 8.77,5.35 13.98,7.13 5.35,1.64 11.93,3.29 20.02,4.52l-4.11 19.75 -111.2 0c-8.64,-23.86 -16.18,-52.24 -22.89,-85.14l-17.69 -85.14c-3.01,-14.81 -6.58,-27.15 -10.69,-37.15 -4.11,-10.01 -9.05,-17.82 -14.81,-23.31 -5.76,-5.49 -12.48,-9.19 -20.15,-10.83 -7.54,-1.78 -16.87,-2.61 -27.83,-2.61l-45.8 0 -28.1 127.24c-2.47,10.56 -4.12,18.78 -5.07,24.95 -0.96,6.17 -1.78,12.61 -2.47,19.47 -0.55,6.85 -0.96,12.89 -0.96,18.24 0,8.36 1.37,14.81 3.98,19.61 2.74,4.66 6.72,8.09 12.07,10.14 5.35,2.2 14.67,3.84 27.69,4.8l-4.39 19.75 -165.08 0 4.39 -19.75c10.28,-1.51 17.82,-4.11 22.9,-7.81 5.07,-3.56 9.46,-8.64 12.89,-15.08 3.43,-6.31 6.72,-14.26 9.6,-23.45 3.01,-9.19 7.4,-27.15 13.3,-53.61l68.28 -309.32c5.89,-26.74 8.91,-47.99 8.91,-63.48 0,-13.16 -3.15,-22.21 -9.32,-27.29 -6.17,-5.07 -16.18,-8.09 -30.16,-8.77l4.52 -19.74 178.65 0c28.38,0 51.55,1.64 69.52,5.07 17.96,3.29 33.32,8.36 46.07,14.95 12.61,6.72 23.31,15.36 31.95,25.91 8.5,10.69 14.95,22.49 19.19,35.79 4.25,13.3 6.45,27.42 6.45,42.37 0,23.86 -3.98,44.97 -11.79,63.48 -7.95,18.51 -18.78,34.69 -32.36,48.68 -13.71,13.84 -29.62,25.64 -47.58,35.23 -18.1,9.74 -37.15,17.55 -57.31,23.72l0 4.39zm-90.77 -30.03c29.2,0 53.47,-2.88 72.67,-8.64 19.33,-5.76 35.37,-14.54 48.27,-26.33 12.89,-11.79 23.45,-27.28 31.67,-46.62 8.36,-19.33 12.48,-40.17 12.48,-62.66 0,-11.52 -1.1,-21.8 -3.15,-30.72 -2.2,-9.05 -4.94,-16.45 -8.5,-22.35 -3.43,-5.9 -7.81,-11.11 -13.3,-15.63 -5.35,-4.52 -11.93,-8.5 -20.02,-11.79 -8.09,-3.43 -17.28,-5.76 -27.97,-7.27 -10.56,-1.51 -24.95,-2.19 -43.19,-2.19 -14.12,0 -29.07,0.55 -44.97,1.64l-51.42 232.53 47.44 0z"/>
  <path id="2" class="fil0" d="M2020.98 2695.86c40.44,0 73.22,3.01 98.44,9.19 25.09,6.17 48.68,17.27 70.47,33.32 21.8,16.18 38.25,37.43 49.22,64.17 10.97,26.6 16.45,58.13 16.45,94.61 0,36.06 -4.11,70.61 -12.48,103.65 -8.23,32.91 -20.16,63.21 -35.79,90.91 -15.49,27.69 -34.14,51.83 -55.8,72.39 -21.67,20.43 -42.64,36.2 -63.07,47.16 -20.29,10.97 -43.05,19.2 -68.28,24.68 -25.09,5.49 -54.43,8.23 -87.89,8.23l-168.78 0 4.39 -19.75c10.28,-1.51 17.82,-4.11 22.9,-7.81 5.07,-3.56 9.46,-8.64 12.89,-15.08 3.43,-6.31 6.72,-14.26 9.6,-23.45 3.01,-9.19 7.4,-27.15 13.3,-53.61l68.28 -309.32c2.74,-12.34 4.8,-24.13 6.44,-35.51 1.64,-11.38 2.47,-21.11 2.47,-29.2 0,-12.48 -3.29,-21.25 -9.73,-26.19 -6.45,-5.07 -16.32,-7.95 -29.75,-8.64l4.52 -19.74 152.19 0zm-140.95 511.28c7.68,0.82 22.62,1.23 44.56,1.23 27.01,0 51.55,-2.88 73.63,-8.77 22.21,-5.9 42.5,-15.36 61.15,-28.38 18.65,-13.03 35.51,-30.3 50.73,-51.97 15.35,-21.66 27.69,-43.74 37.15,-66.09 9.6,-22.35 17,-46.34 22.35,-72.12 5.35,-25.64 8.09,-52.92 8.09,-81.58 0,-55.94 -13.16,-98.04 -39.21,-126.28 -26.05,-28.24 -64.85,-42.36 -116.27,-42.36 -11.79,0 -24.54,0.41 -38.25,1.23l-103.93 475.08z"/>
  <path id="3" class="fil0" d="M2613.42 2879.86l37.02 -26.6 25.64 6.45 -61.43 272.71c-3.7,16.18 -6.31,28.52 -7.68,37.29 -1.23,8.64 -1.92,15.76 -1.92,21.39 0,10.97 3.02,18.92 9.19,23.99 6.17,4.93 17.96,8.09 35.37,9.32l-3.56 19.75 -114.9 0 25.23 -100.77 -5.21 -1.64c-25.64,37.43 -50.05,64.99 -73.08,82.4 -23.03,17.27 -47.44,26.05 -73.08,26.05 -29.48,0 -52.38,-11.11 -68.55,-33.32 -16.18,-22.21 -24.27,-53.47 -24.27,-93.64 0,-25.64 3.01,-51.41 8.91,-77.33 5.9,-25.78 14.67,-50.32 26.6,-73.49 11.93,-23.17 26.19,-43.6 42.78,-61.29 16.59,-17.69 35.92,-31.67 57.72,-42.09 21.8,-10.42 45.52,-15.77 71.3,-15.77 16.59,0 32.36,2.06 47.44,5.9 14.95,3.84 30.44,10.69 46.48,20.7zm-35.24 119.7c2.33,-10.97 3.98,-20.57 4.8,-28.52 0.82,-8.09 1.09,-16.73 1.09,-26.18 0,-20.84 -4.39,-36.06 -13.16,-45.52 -8.91,-9.6 -23.58,-14.26 -44.15,-14.26 -11.24,0 -22.07,1.78 -32.22,5.35 -10.14,3.7 -20.43,9.73 -30.85,18.1 -10.56,8.5 -20.43,19.47 -30.03,33.18 -9.46,13.71 -18.1,30.3 -25.91,49.77 -7.68,19.61 -13.71,40.58 -17.96,62.93 -4.39,22.35 -6.44,44.01 -6.44,65.26 0,27.83 3.7,48.67 11.38,62.39 7.68,13.85 20.43,20.7 38.39,20.7 8.22,0 16.86,-1.78 25.91,-5.62 8.91,-3.7 18.92,-10.56 29.89,-20.7 10.97,-10.01 23.45,-24.82 37.43,-44.29 12.48,-17.96 22.49,-35.79 29.89,-53.34 7.41,-17.41 13.44,-38.11 18.24,-61.97l3.7 -17.28z"/>
  <path id="4" class="fil0" d="M2982.25 3170.26c-22.08,26.46 -43.74,46.48 -65.13,60.05 -21.39,13.57 -44.15,20.29 -68.28,20.29 -28.38,0 -49.49,-7.27 -63.48,-21.66 -13.98,-14.54 -20.84,-35.51 -20.84,-63.07 0,-16.86 2.33,-35.79 7.13,-56.62l49.91 -208.54 -59.92 0 4.39 -20.43c15.9,-1.92 28.38,-5.35 37.57,-10.28 9.32,-4.93 17,-11.52 23.31,-19.74 6.31,-8.09 12.2,-18.78 17.55,-31.81 5.35,-13.16 12.07,-32.36 20.02,-57.45l55.39 0 -22.08 99.13 127.38 0 -8.77 40.58 -127.79 0 -38.53 155.89c-10.69,43.33 -16.04,75.82 -16.04,97.21 0,16.32 3.43,28.66 10.56,37.15 7.13,8.36 17.55,12.62 31.12,12.62 12.34,0 25.23,-4.8 38.8,-14.26 13.58,-9.46 28.24,-23.86 44.42,-43.19l23.31 24.13z"/>
  <path id="5" class="fil0" d="M3324.33 2879.86l37.02 -26.6 25.64 6.45 -61.43 272.71c-3.7,16.18 -6.31,28.52 -7.68,37.29 -1.23,8.64 -1.92,15.76 -1.92,21.39 0,10.97 3.02,18.92 9.19,23.99 6.17,4.93 17.96,8.09 35.37,9.32l-3.56 19.75 -114.9 0 25.23 -100.77 -5.21 -1.64c-25.64,37.43 -50.05,64.99 -73.08,82.4 -23.03,17.27 -47.44,26.05 -73.08,26.05 -29.48,0 -52.38,-11.11 -68.55,-33.32 -16.18,-22.21 -24.27,-53.47 -24.27,-93.64 0,-25.64 3.01,-51.41 8.91,-77.33 5.9,-25.78 14.67,-50.32 26.6,-73.49 11.93,-23.17 26.19,-43.6 42.78,-61.29 16.59,-17.69 35.92,-31.67 57.72,-42.09 21.8,-10.42 45.52,-15.77 71.3,-15.77 16.59,0 32.36,2.06 47.44,5.9 14.95,3.84 30.44,10.69 46.48,20.7zm-35.24 119.7c2.33,-10.97 3.98,-20.57 4.8,-28.52 0.82,-8.09 1.09,-16.73 1.09,-26.18 0,-20.84 -4.39,-36.06 -13.16,-45.52 -8.91,-9.6 -23.58,-14.26 -44.15,-14.26 -11.24,0 -22.07,1.78 -32.22,5.35 -10.14,3.7 -20.43,9.73 -30.85,18.1 -10.56,8.5 -20.43,19.47 -30.03,33.18 -9.46,13.71 -18.1,30.3 -25.91,49.77 -7.68,19.61 -13.71,40.58 -17.96,62.93 -4.39,22.35 -6.44,44.01 -6.44,65.26 0,27.83 3.7,48.67 11.38,62.39 7.68,13.85 20.43,20.7 38.39,20.7 8.22,0 16.86,-1.78 25.91,-5.62 8.91,-3.7 18.92,-10.56 29.89,-20.7 10.97,-10.01 23.45,-24.82 37.43,-44.29 12.48,-17.96 22.49,-35.79 29.89,-53.34 7.41,-17.41 13.44,-38.11 18.24,-61.97l3.7 -17.28z"/>
  <path id="6" class="fil0" d="M4390.35 3119.25c0,32.36 7.54,56.49 22.48,72.53 14.95,15.9 38.39,23.86 70.34,23.86 24.54,0 45.79,-4.52 63.48,-13.71 17.55,-9.05 30.98,-21.94 40.03,-38.66 9.19,-16.73 13.71,-36.61 13.71,-59.64 0,-16.46 -2.88,-30.85 -8.64,-43.19 -5.76,-12.48 -14.4,-24.4 -26.05,-35.79 -11.65,-11.38 -28.52,-24.4 -50.45,-39.21 -19.88,-13.3 -36.34,-26.6 -49.36,-39.49 -13.17,-13.02 -23.59,-27.56 -31.4,-43.6 -7.82,-16.04 -11.66,-34.01 -11.66,-53.89 0,-31.53 7.68,-59.37 22.9,-83.5 15.22,-24.13 36.88,-42.78 64.72,-55.8 27.83,-13.16 59.91,-19.75 96.39,-19.75 24.68,0 47.44,1.65 68.42,5.07 21.11,3.29 44.28,9.05 69.79,17l-22.48 103.24 -38.66 0c-0.96,-22.76 -4.53,-40.59 -10.42,-53.61 -5.89,-13.03 -14.26,-22.35 -25.23,-27.97 -10.97,-5.62 -25.64,-8.36 -43.87,-8.36 -22.21,0 -41.68,4.53 -58.55,13.71 -16.86,9.05 -29.75,21.39 -38.66,37.15 -8.77,15.63 -13.16,33.04 -13.16,52.38 0,13.85 2.33,26.32 7.13,37.29 4.94,10.97 12.62,21.8 23.17,32.36 10.56,10.56 26.05,22.9 46.34,36.74 26.32,18.24 46.34,34.55 60.05,48.81 13.85,14.4 23.99,29.48 30.58,45.66 6.58,16.04 9.87,34.69 9.87,55.8 0,32.36 -7.81,61.29 -23.58,86.52 -15.63,25.36 -37.71,44.83 -66.22,58.68 -28.52,13.85 -61.02,20.7 -97.48,20.7 -24.82,0 -51.28,-1.92 -79.25,-5.62 -27.97,-3.7 -53.61,-8.91 -76.92,-15.22l24.13 -110.51 38.53 0z"/>
  <path id="7" class="fil0" d="M4773.84 2860.12l126.56 0 -51.01 204.43c-3.7,15.08 -6.99,30.03 -9.87,44.84 -2.74,14.81 -4.12,28.52 -4.12,40.72 0,19.05 3.15,32.77 9.74,41 6.58,8.36 16.86,12.48 30.71,12.48 11.52,0 23.99,-4.52 37.43,-13.44 13.44,-8.91 27.56,-22.89 42.5,-41.82 15.08,-18.78 26.87,-36.74 35.65,-53.61 8.64,-16.86 15.36,-36.88 20.29,-60.19l36.47 -174.4 69.52 0 -61.02 274.35c-1.64,7.27 -3.56,16.73 -5.62,28.52 -2.19,11.79 -3.29,21.39 -3.29,28.93 0,11.24 3.15,19.19 9.46,23.86 6.31,4.8 18.1,7.68 35.23,8.64l-4.52 19.75 -114.9 0 25.78 -100.77 -5.21 -1.64c-26.05,36.88 -51.14,64.3 -75.27,82.13 -24.27,17.82 -48.68,26.74 -73.36,26.74 -26.05,0 -45.65,-7.13 -59.09,-21.53 -13.44,-14.26 -20.02,-35.51 -20.02,-63.62 0,-8.09 0.69,-17.55 2.2,-28.38 1.51,-10.83 3.56,-22.08 6.17,-33.87l33.73 -142.6c2.74,-11.79 4.53,-21.25 5.49,-28.1 0.96,-6.99 1.37,-12.89 1.37,-17.69 0,-12.06 -3.15,-20.57 -9.6,-25.37 -6.44,-4.8 -17.96,-7.95 -34.55,-9.19l3.15 -20.15z"/>
  <path id="8" class="fil0" d="M5312.55 2856.55l24.13 0 -28.11 98.85 4.8 1.51c25.37,-35.1 50.32,-61.01 74.45,-77.88 24.27,-16.86 49.22,-25.37 75,-25.37 19.47,0 35.79,1.51 48.95,4.53l-19.2 89.94 -41.41 0c-2.19,-13.98 -5.48,-24.54 -10.01,-31.81 -4.66,-7.13 -11.65,-10.83 -21.39,-10.83 -10.42,0 -22.48,5.35 -36.06,16.04 -13.71,10.83 -27.7,25.5 -41.82,44.28 -14.26,18.65 -24.82,35.93 -31.95,51.83 -7.13,15.76 -12.48,33.31 -16.32,52.51l-36.47 173.99 -69.52 0 61.01 -274.36c5.62,-25.23 8.5,-44.28 8.5,-57.45 0,-7.54 -1.23,-13.3 -3.7,-17.41 -2.33,-4.25 -6.17,-7.27 -11.65,-9.32 -5.35,-1.92 -14.4,-3.43 -27.29,-4.25l4.39 -21.25 93.65 -3.56z"/>
  <path id="9" class="fil0" d="M5874.83 2860.12l10.83 20.15c-9.87,23.86 -17.41,41.41 -22.62,52.92 -5.21,11.52 -12.34,25.91 -21.25,43.19 -9.05,17.27 -19.06,35.51 -30.16,54.43 -11.11,19.06 -23.72,39.35 -37.98,61.15 -14.12,21.67 -30.3,45.52 -48.4,71.44 -18.1,26.05 -39.35,54.98 -63.62,87.2l-50.18 0 -37.43 -303.28c-2.47,-19.61 -5.07,-33.59 -7.82,-41.96 -2.88,-8.5 -6.85,-14.67 -12.2,-18.51 -5.48,-3.84 -13.84,-6.17 -25.36,-6.99l4.39 -19.74 103.24 0 30.58 319.32c46.07,-63.48 80.21,-116.81 102.42,-160.28 22.21,-43.33 33.31,-78.56 33.31,-105.57 0,-12.62 -2.6,-21.11 -8.09,-25.78 -5.35,-4.52 -14.4,-7.13 -27.29,-7.95l3.98 -19.74 103.66 0z"/>
  <path id="10" class="fil0" d="M6201.01 3164.22c-19.88,21.67 -38.8,38.8 -57.04,51.41 -18.24,12.62 -36.47,21.53 -54.71,26.88 -18.1,5.35 -38.25,8.09 -60.19,8.09 -21.11,0 -39.35,-3.43 -54.71,-10.28 -15.22,-6.85 -27.83,-16.18 -37.84,-28.1 -10.14,-11.93 -17.55,-26.05 -22.35,-42.5 -4.8,-16.59 -7.27,-34.42 -7.27,-53.75 0,-28.66 5.21,-59.37 15.49,-92.14 10.28,-32.77 25.91,-62.25 46.75,-88.43 20.98,-26.05 45.93,-46.21 75.14,-60.6 29.2,-14.26 60.33,-21.53 93.23,-21.53 32.36,0 56.63,6.58 72.94,19.75 16.18,13.16 24.27,33.59 24.27,61.42 0,45.52 -21.39,79.66 -64.03,102.42 -42.78,22.76 -106.12,34.14 -190.31,34.14 -3.15,16.04 -4.8,33.45 -4.8,52.24 0,28.11 5.49,48.54 16.46,61.29 10.97,12.75 28.93,19.06 53.88,19.06 24.68,0 47.03,-5.35 67.05,-16.04 20.15,-10.69 41.13,-27.15 63.07,-49.36l24.95 26.05zm-213.75 -127.37c24.68,-0.28 46.34,-1.64 64.85,-4.11 18.65,-2.61 34.69,-6.04 47.99,-10.56 13.44,-4.39 24.54,-9.6 33.45,-15.77 8.78,-6.17 15.77,-13.02 20.98,-20.29 5.35,-7.4 8.91,-15.22 10.97,-23.31 1.92,-8.23 2.88,-16.73 2.88,-25.5 0,-16.32 -3.7,-29.21 -11.38,-38.39 -7.68,-9.19 -18.92,-13.85 -34,-13.85 -18.65,0 -37.15,6.72 -55.12,20.29 -18.1,13.44 -34,31.67 -47.85,54.57 -13.85,22.89 -24.68,48.54 -32.77,76.92z"/>
  <path id="11" class="fil0" d="M6324.27 2947.73c-2.74,-20.43 -5.21,-34.55 -7.68,-42.37 -2.33,-7.95 -6.31,-13.98 -11.66,-18.1 -5.35,-4.12 -13.98,-6.58 -26.05,-7.41l4.39 -19.74 103.24 0 30.58 319.32c90.49,-123.67 135.74,-212.38 135.74,-265.85 0,-12.62 -2.6,-21.11 -8.09,-25.78 -5.35,-4.52 -14.4,-7.13 -27.29,-7.95l3.98 -19.74 103.66 0 10.83 20.15c-14.12,37.16 -32.22,75.69 -54.43,115.58 -22.07,39.9 -49.08,83.64 -81.03,131.07 -32.08,47.3 -67.6,96.66 -106.67,147.81 -30.03,39.35 -55.12,69.1 -75.55,89.12 -15.77,15.22 -30.3,26.87 -43.6,34.69 -13.16,7.95 -26.05,13.57 -38.53,16.86 -12.48,3.43 -25.64,5.07 -39.62,5.07 -7.13,0 -15.36,-0.68 -24.41,-2.19 -9.19,-1.51 -16.86,-3.43 -23.31,-5.76l17.27 -75.14 31.26 0c0.27,9.05 2.47,16.32 6.44,21.67 3.98,5.35 9.87,7.95 17.69,7.95 8.5,0 15.9,-0.82 22.08,-2.61 6.17,-1.64 12.62,-4.52 19.47,-8.64 6.85,-3.98 15.22,-10.42 24.95,-19.2 9.74,-8.91 20.84,-20.56 33.18,-35.23 12.2,-14.54 26.05,-32.08 41.27,-52.79l-38.12 -300.82z"/>
  <path id="12" class="fil1" d="M3923.63 3188.77c-29.21,20.84 -58,36.33 -86.38,46.62 -28.38,10.14 -57.59,15.22 -87.62,15.22 -26.46,0 -49.22,-5.07 -68.42,-15.08 -19.19,-10.01 -33.59,-23.72 -43.19,-41 -9.6,-17.27 -14.54,-36.47 -14.54,-57.59 0,-24.95 5.9,-47.99 17.69,-69.38 11.79,-21.25 29.34,-41.41 52.51,-60.47 23.17,-18.92 54.16,-38.94 92.96,-59.78 -8.37,-17.14 -14.54,-34.14 -18.65,-51 -4.25,-16.87 -6.31,-34.42 -6.31,-52.65 0,-28.1 7.4,-54.16 22.07,-78.15 14.81,-24 34.96,-42.64 60.47,-55.94 25.64,-13.44 54.02,-20.16 85.42,-20.16 34.83,0 61.97,7.54 81.58,22.76 19.47,15.08 29.2,36.2 29.2,63.21 0,23.58 -6.17,44.7 -18.37,63.2 -12.34,18.65 -29.89,36.2 -52.65,52.51 -22.76,16.32 -58.41,36.47 -106.81,60.6 8.5,17.14 22.9,43.19 43.19,78.15 20.16,34.96 37.29,62.8 51.55,83.78 25.77,-22.76 45.24,-44.97 58.41,-66.5 13.3,-21.53 19.88,-41.14 19.88,-58.82 0,-17.96 -10.14,-27.7 -30.44,-29.34l3.98 -19.75 96.8 0 9.6 19.75c-11.79,32.08 -29.48,64.03 -53.2,95.84 -23.72,31.67 -52.1,61.42 -85.28,89.4 9.6,15.76 17.96,27.83 25.23,36.06 7.27,8.36 14.12,14.12 20.7,17.55 6.58,3.29 14.12,4.93 22.76,4.93 10.97,0 20.84,-1.64 29.89,-4.8 8.91,-3.15 19.33,-8.77 31.12,-16.87l15.22 27.7c-22.21,15.77 -41.55,26.74 -58,32.77 -16.46,6.04 -33.59,9.05 -51.28,9.05 -18.24,0 -34.01,-4.52 -47.58,-13.71 -13.44,-9.05 -27.42,-25.09 -41.54,-48.13zm-76.37 -267.91c31.95,-15.9 57.18,-30.85 75.96,-44.83 18.78,-14.12 32.36,-28.38 40.72,-43.06 8.5,-14.53 12.75,-30.71 12.75,-48.4 0,-19.75 -4.8,-34.83 -14.12,-45.38 -9.33,-10.42 -23.03,-15.63 -41,-15.63 -18.65,0 -35.24,4.94 -49.63,14.81 -14.26,10.01 -25.23,23.44 -32.91,40.58 -7.54,17.14 -11.38,36.33 -11.38,57.45 0,16.18 1.64,30.99 5.21,44.7 3.43,13.57 8.22,26.88 14.4,39.76zm-45.38 59.37c-24.82,15.08 -44.7,29.07 -59.37,42.23 -14.81,13.02 -26.33,27.56 -34.83,43.6 -8.36,15.9 -12.62,33.18 -12.62,51.97 0,20.16 3.84,36.61 11.66,49.63 7.81,13.02 17.96,22.35 30.57,28.1 12.48,5.76 26.74,8.64 42.5,8.64 13.98,0 27.15,-1.64 39.63,-5.07 12.34,-3.29 24.68,-7.95 36.88,-13.85 12.2,-5.89 27.83,-15.22 46.89,-28.1 -10.83,-16.04 -26.6,-42.5 -47.44,-79.25 -20.98,-36.88 -38.8,-69.52 -53.88,-97.9z"/>
  <path class="fil2" d="M922.96 1327.76l1625.7 0c0,318.45 -130.08,591.56 -390.77,819.32 -249.36,218.06 -541.36,327.08 -875.46,327.08 -348.13,0 -648.77,-121.44 -902.44,-363.78 -253.14,-242.35 -379.98,-538.12 -379.98,-886.8 0,-160.3 32.92,-314.67 98.77,-463.1 65.85,-148.43 156.52,-280.66 270.95,-395.09 119.29,-119.28 258.54,-209.96 417.76,-272.03 159.23,-62.07 323.85,-93.37 494.94,-93.37 125.22,0 247.2,16.73 365.94,50.73 118.2,33.47 231.01,84.2 337.34,152.75 89.6,59.91 170.56,128.46 243.42,205.1 85.28,90.14 143.57,179.2 173.8,266.63l-272.03 0c-82.04,-138.71 -201.86,-247.74 -358.93,-328.16 -78.8,-39.94 -158.14,-70.17 -238.02,-90.13 -79.34,-19.97 -163.54,-30.22 -252.06,-30.22 -130.62,0 -257.46,22.67 -380.52,67.47 -122.52,44.8 -233.71,112.27 -333.56,203.48 -99.85,90.68 -179.2,201.32 -238.57,331.4 -59.91,130.62 -89.6,262.85 -89.6,396.71 0,288.22 103.63,531.1 311.43,728.65 202.4,193.22 449.06,289.84 740.52,289.84 218.06,0 419.38,-64.77 602.89,-194.84 184.05,-129.54 306.03,-297.94 366.48,-504.66l-1338.02 0 0 -216.97z"/>
  <path class="fil0" d="M2951.46 893.53l0 217.37 -206.27 0 0 -217.37 206.27 0zm-320.69 1456.14c29.08,-8.8 50.13,-16.46 62.38,-23.35 12.25,-6.89 22.58,-16.07 31.38,-27.93 8.42,-12.25 15.31,-30.23 20.28,-55.11 4.59,-24.5 7.27,-63.15 7.27,-115.57l0 -488.7c0,-47.84 -0.77,-86.49 -2.3,-115.57 -1.53,-29.09 -6.89,-52.43 -15.69,-70.03 -9.19,-17.6 -22.58,-30.62 -40.95,-39.04 -18.37,-8.8 -44.39,-16.07 -78.07,-22.2l0 -59.32 261.38 -9.95 68.12 0 0 801.74c0,64.29 3.06,108.68 9.18,133.94 6.12,24.88 17.22,44.01 34.06,57.02 16.84,13.01 44.39,24.49 82.66,34.06l0 55.11 -439.71 0 0 -55.11z"/>
  <path id="1" class="fil0" d="M4360.92 2404.79l-442.01 0 0 -55.11c29.47,-8.8 50.13,-16.46 62.76,-23.35 13.01,-6.89 23.73,-16.07 32.14,-27.93 8.42,-12.25 15.31,-30.62 20.28,-55.49 4.59,-25.26 7.27,-63.14 7.27,-114.04l0 -293.52c0,-52.43 -1.53,-99.88 -4.59,-142.36 -3.06,-42.86 -8.04,-77.69 -14.93,-104.86 -7.27,-27.55 -16.07,-48.6 -26.02,-63.91 -9.95,-15.31 -22.2,-28.7 -35.97,-39.41 -13.78,-10.71 -29.47,-19.52 -47.45,-25.64 -17.98,-6.51 -41.71,-9.57 -70.8,-9.57 -29.09,0 -56.64,5.74 -83.04,17.22 -26.02,11.86 -54.72,31.77 -86.11,60.08 -31.38,28.32 -54.34,56.64 -68.5,84.19 -14.16,27.55 -21.43,59.32 -21.43,95.29l0 418.29c0,64.29 3.06,108.68 9.18,133.94 6.12,24.88 17.22,44.01 34.06,57.02 16.84,13.01 44.39,24.49 82.66,34.06l0 55.11 -439.71 0 0 -55.11c29.08,-8.8 50.13,-16.46 62.38,-23.35 12.25,-6.89 22.58,-16.07 31.38,-27.93 8.42,-12.25 15.31,-30.23 20.28,-55.11 4.59,-24.5 7.27,-63.15 7.27,-115.57l0 -488.7c0,-47.84 -0.77,-86.49 -2.3,-115.57 -1.53,-29.09 -6.89,-52.43 -15.69,-70.03 -9.19,-17.6 -22.58,-30.62 -40.95,-39.04 -18.37,-8.8 -44.39,-16.07 -78.07,-22.2l0 -59.32 262.53 -9.95 68.12 0 -12.24 182.54 15.69 4.59c55.49,-55.87 99.88,-96.06 133.94,-119.78 34.06,-24.11 68.51,-42.48 103.33,-55.49 34.82,-13.39 71.56,-19.9 110.22,-19.9 40.56,0 76.54,4.98 108.3,14.16 31.76,9.19 59.7,23.73 84.19,43.25 24.11,19.51 44.39,43.24 60.08,72.33 15.69,28.7 27.17,63.14 35.21,103.71 7.65,40.18 11.86,91.46 11.86,153.46l0 422.88c0,51.28 1.53,88.78 4.21,112.13 3.06,22.96 8.42,40.95 15.69,53.58 7.65,12.63 18.37,23.34 32.53,32.14 14.16,8.42 39.04,17.6 74.24,27.17l0 55.11z"/>
  <path id="2" class="fil0" d="M5446.24 2214.2c-47.84,50.13 -91.85,89.17 -131.65,117.87 -40.18,28.32 -83.81,50.52 -131.65,66.59 -47.84,16.07 -100.65,24.11 -158.43,24.11 -153.85,0 -270.18,-46.3 -348.63,-138.53 -78.45,-92.23 -117.48,-228.47 -117.48,-408.72 0,-111.36 19.9,-209.72 59.7,-294.67 40.18,-85.34 97.2,-151.16 171.06,-197.47 74.24,-46.31 159.2,-69.65 255.64,-69.65 75.39,0 139.69,12.24 192.88,35.97 53.2,24.11 95.68,56.64 127.44,97.97 31.76,41.71 56.26,94.14 73.86,157.29 17.61,63.14 27.55,145.42 29.85,247.22l-706.45 0 0 19.9c0,88.4 9.95,162.64 29.85,222.73 19.52,60.09 52.05,107.16 97.2,141.21 45.54,34.06 104.09,50.9 176.8,50.9 61.23,0 116.34,-11.1 165.32,-34.06 48.99,-22.96 97.59,-60.08 146.19,-111.74l68.51 73.09zm-188.29 -455.4c-4.59,-80.36 -14.54,-146.57 -30.23,-197.85 -15.69,-50.9 -39.42,-90.31 -70.8,-117.48 -31.38,-27.55 -72.33,-40.95 -123.23,-40.95 -76.92,0 -138.54,30.61 -184.46,92.61 -45.92,61.61 -73.09,149.63 -81.13,263.67l489.84 0z"/>
  <path id="3" class="fil0" d="M6117.48 1758.04l145.81 -185.22c15.69,-20.28 28.7,-39.8 38.27,-58.94 9.57,-18.75 14.54,-38.65 14.54,-58.55 0,-17.22 -6.51,-31.76 -19.14,-42.86 -12.63,-11.1 -32.53,-19.52 -59.32,-24.49l0 -55.11 366.62 0 0 55.11c-28.32,8.04 -57.4,24.11 -86.87,48.22 -29.47,23.73 -65.82,62.38 -108.3,115.57l-231.91 284.72 255.64 344.04c36.36,49.37 69.27,87.26 98.73,113.28 29.09,26.02 58.17,44.78 87.26,55.87l0 55.11 -450.81 0 0 -55.11c62,-7.27 92.99,-30.62 92.99,-69.27 0,-15.69 -2.3,-30.62 -7.65,-44.78 -5.36,-14.54 -14.92,-31 -29.08,-49.37l-162.64 -226.55 -172.6 224.26c-12.63,16.46 -22.58,31.38 -29.85,45.16 -6.89,14.16 -10.71,29.47 -10.71,46.69 0,20.28 6.89,36.74 21.05,49.75 13.78,13.39 35.59,21.43 65.44,24.11l0 55.11 -374.66 0 0 -55.11c24.88,-8.8 47.07,-19.9 66.97,-33.29 19.52,-13.78 39.8,-31 60.47,-52.43 20.67,-21.05 47.45,-52.43 81.13,-93.38l233.44 -289.31 -238.8 -327.58c-32.91,-44.78 -59.32,-77.3 -78.45,-97.59 -19.51,-19.9 -37.5,-35.21 -53.96,-45.92 -16.46,-10.33 -32.91,-17.99 -49.37,-22.2l0 -55.11 439.71 0 0 55.11c-59.32,8.8 -88.78,32.14 -88.78,69.27 0,17.22 3.82,34.44 11.86,51.66 7.66,17.22 19.9,36.36 36.36,57.4l136.62 191.73z"/>
 </g>
</svg>
